<svg width="322" height="322" viewBox="0 0 322 322" fill="none" xmlns="http://www.w3.org/2000/svg">
<path d="M175.356 139.668C183.506 128.28 187.888 114.628 187.888 100.625C187.888 86.6219 183.506 72.9698 175.356 61.5826C182.984 56.3763 192.016 53.6153 201.251 53.6667C213.705 53.6667 225.649 58.6141 234.455 67.4205C243.262 76.2269 248.209 88.1709 248.209 100.625C248.209 113.079 243.262 125.023 234.455 133.83C225.649 142.636 213.705 147.583 201.251 147.583C192.016 147.635 182.984 144.874 175.356 139.668ZM73.7923 100.625C73.7923 91.3376 76.5464 82.2587 81.7062 74.5364C86.8661 66.8141 94.2 60.7954 102.78 57.2412C111.361 53.687 120.803 52.7571 129.912 54.569C139.021 56.3809 147.388 60.8533 153.955 67.4205C160.522 73.9877 164.995 82.3549 166.807 91.4639C168.619 100.573 167.689 110.015 164.135 118.595C160.58 127.176 154.562 134.51 146.839 139.669C139.117 144.829 130.038 147.583 120.751 147.583C108.297 147.583 96.3525 142.636 87.5461 133.83C78.7397 125.023 73.7923 113.079 73.7923 100.625ZM100.626 100.625C100.626 104.605 101.806 108.496 104.017 111.806C106.229 115.115 109.372 117.695 113.049 119.218C116.727 120.741 120.773 121.14 124.677 120.363C128.581 119.587 132.167 117.67 134.981 114.856C137.796 112.041 139.712 108.455 140.489 104.551C141.265 100.647 140.867 96.6009 139.344 92.9236C137.821 89.2462 135.241 86.1031 131.931 83.8917C128.622 81.6804 124.731 80.5001 120.751 80.5001C115.413 80.5001 110.294 82.6204 106.52 86.3945C102.746 90.1687 100.626 95.2876 100.626 100.625ZM214.667 228.083V254.917H26.834V228.083C26.834 228.083 26.834 174.417 120.751 174.417C214.667 174.417 214.667 228.083 214.667 228.083ZM187.834 228.083C185.956 217.618 169.99 201.25 120.751 201.25C71.5115 201.25 54.6065 218.826 53.6673 228.083M213.996 174.417C222.22 180.813 228.943 188.932 233.695 198.203C238.446 207.474 241.11 217.673 241.501 228.083V254.917H295.167V228.083C295.167 228.083 295.167 179.381 213.862 174.417H213.996Z" fill="#8F8F8F"/>
</svg>
