<svg width="39" height="39" viewBox="0 0 39 39" fill="none" xmlns="http://www.w3.org/2000/svg">
<path fill-rule="evenodd" clip-rule="evenodd" d="M8.83252 1.45368C15.9226 0.667783 23.0778 0.667783 30.1679 1.45368C34.0936 1.89368 37.2606 4.98514 37.7213 8.92451C38.5623 16.1157 38.5623 23.3804 37.7213 30.5716C37.2606 34.511 34.0936 37.6024 30.1679 38.0424C23.0779 38.8285 15.9226 38.8285 8.83252 38.0424C4.90689 37.6024 1.73981 34.511 1.27919 30.5716C0.438188 23.3812 0.438188 16.1172 1.27919 8.92681C1.51217 7.01297 2.38464 5.23389 3.75518 3.87791C5.12572 2.52193 6.91401 1.66851 8.83023 1.45597M19.5002 8.30576C19.9561 8.30576 20.3932 8.48685 20.7156 8.80917C21.0379 9.1315 21.219 9.56867 21.219 10.0245V18.0293H29.2238C29.6796 18.0293 30.1168 18.2104 30.4391 18.5327C30.7614 18.855 30.9425 19.2922 30.9425 19.7481C30.9425 20.2039 30.7614 20.6411 30.4391 20.9634C30.1168 21.2857 29.6796 21.4668 29.2238 21.4668H21.219V29.4716C21.219 29.9274 21.0379 30.3646 20.7156 30.6869C20.3932 31.0093 19.9561 31.1903 19.5002 31.1903C19.0444 31.1903 18.6072 31.0093 18.2849 30.6869C17.9626 30.3646 17.7815 29.9274 17.7815 29.4716V21.4668H9.77669C9.32084 21.4668 8.88367 21.2857 8.56135 20.9634C8.23902 20.6411 8.05794 20.2039 8.05794 19.7481C8.05794 19.2922 8.23902 18.855 8.56135 18.5327C8.88367 18.2104 9.32084 18.0293 9.77669 18.0293H17.7815V10.0245C17.7815 9.56867 17.9626 9.1315 18.2849 8.80917C18.6072 8.48685 19.0444 8.30576 19.5002 8.30576Z" fill="#53AFE6"/>
</svg>
