<svg width="29" height="28" viewBox="0 0 29 28" fill="none" xmlns="http://www.w3.org/2000/svg">
<path d="M24.125 2.76294H21.375V1.38794C21.375 1.02327 21.2301 0.67353 20.9723 0.415668C20.7144 0.157805 20.3647 0.0129395 20 0.0129395C19.6353 0.0129395 19.2856 0.157805 19.0277 0.415668C18.7699 0.67353 18.625 1.02327 18.625 1.38794V2.76294H10.375V1.38794C10.375 1.02327 10.2301 0.67353 9.97227 0.415668C9.71441 0.157805 9.36467 0.0129395 9 0.0129395C8.63533 0.0129395 8.28559 0.157805 8.02773 0.415668C7.76987 0.67353 7.625 1.02327 7.625 1.38794V2.76294H4.875C3.78098 2.76294 2.73177 3.19754 1.95818 3.97112C1.1846 4.74471 0.75 5.79392 0.75 6.88794V23.3879C0.75 24.482 1.1846 25.5312 1.95818 26.3048C2.73177 27.0783 3.78098 27.5129 4.875 27.5129H24.125C25.219 27.5129 26.2682 27.0783 27.0418 26.3048C27.8154 25.5312 28.25 24.482 28.25 23.3879V6.88794C28.25 5.79392 27.8154 4.74471 27.0418 3.97112C26.2682 3.19754 25.219 2.76294 24.125 2.76294ZM25.5 23.3879C25.5 23.7526 25.3551 24.1024 25.0973 24.3602C24.8394 24.6181 24.4897 24.7629 24.125 24.7629H4.875C4.51033 24.7629 4.16059 24.6181 3.90273 24.3602C3.64487 24.1024 3.5 23.7526 3.5 23.3879V13.7629H25.5V23.3879ZM25.5 11.0129H3.5V6.88794C3.5 6.52327 3.64487 6.17353 3.90273 5.91567C4.16059 5.65781 4.51033 5.51294 4.875 5.51294H7.625V6.88794C7.625 7.25261 7.76987 7.60235 8.02773 7.86021C8.28559 8.11807 8.63533 8.26294 9 8.26294C9.36467 8.26294 9.71441 8.11807 9.97227 7.86021C10.2301 7.60235 10.375 7.25261 10.375 6.88794V5.51294H18.625V6.88794C18.625 7.25261 18.7699 7.60235 19.0277 7.86021C19.2856 8.11807 19.6353 8.26294 20 8.26294C20.3647 8.26294 20.7144 8.11807 20.9723 7.86021C21.2301 7.60235 21.375 7.25261 21.375 6.88794V5.51294H24.125C24.4897 5.51294 24.8394 5.65781 25.0973 5.91567C25.3551 6.17353 25.5 6.52327 25.5 6.88794V11.0129Z" fill="#8F8F8F"/>
</svg>
