<svg width="34" height="35" viewBox="0 0 34 35" fill="none" xmlns="http://www.w3.org/2000/svg">
<path d="M18.5165 15.0104C19.377 13.808 19.8397 12.3665 19.8397 10.8879C19.8397 9.40932 19.377 7.96779 18.5165 6.76541C19.3219 6.21568 20.2755 5.92415 21.2507 5.92958C22.5657 5.92958 23.8269 6.45197 24.7567 7.38184C25.6866 8.31171 26.209 9.57288 26.209 10.8879C26.209 12.2029 25.6866 13.4641 24.7567 14.394C23.8269 15.3239 22.5657 15.8462 21.2507 15.8462C20.2755 15.8517 19.3219 15.5601 18.5165 15.0104ZM7.79232 10.8879C7.79232 9.90725 8.08312 8.9486 8.62795 8.13321C9.17278 7.31782 9.94716 6.68229 10.8532 6.30701C11.7592 5.93173 12.7562 5.83353 13.718 6.02485C14.6798 6.21617 15.5633 6.68841 16.2567 7.38184C16.9502 8.07528 17.4224 8.95877 17.6137 9.92059C17.805 10.8824 17.7068 11.8794 17.3316 12.7854C16.9563 13.6914 16.3207 14.4658 15.5054 15.0106C14.69 15.5554 13.7313 15.8462 12.7507 15.8462C11.4356 15.8462 10.1744 15.3239 9.24458 14.394C8.31471 13.4641 7.79232 12.2029 7.79232 10.8879ZM10.6257 10.8879C10.6257 11.3082 10.7503 11.719 10.9838 12.0685C11.2173 12.418 11.5492 12.6903 11.9374 12.8512C12.3257 13.012 12.753 13.0541 13.1652 12.9721C13.5774 12.8901 13.9561 12.6877 14.2533 12.3905C14.5504 12.0933 14.7528 11.7147 14.8348 11.3025C14.9168 10.8903 14.8747 10.463 14.7139 10.0747C14.5531 9.68642 14.2807 9.35454 13.9312 9.12104C13.5818 8.88754 13.1709 8.76291 12.7507 8.76291C12.1871 8.76291 11.6466 8.9868 11.248 9.38531C10.8495 9.78382 10.6257 10.3243 10.6257 10.8879ZM22.6673 24.3462V27.1796H2.83398V24.3462C2.83398 24.3462 2.83398 18.6796 12.7507 18.6796C22.6673 18.6796 22.6673 24.3462 22.6673 24.3462ZM19.834 24.3462C19.6357 23.2412 17.9498 21.5129 12.7507 21.5129C7.55148 21.5129 5.76648 23.3687 5.66732 24.3462M22.5965 18.6796C23.4648 19.3549 24.1747 20.2122 24.6764 21.1911C25.1781 22.1701 25.4594 23.247 25.5007 24.3462V27.1796H31.1673V24.3462C31.1673 24.3462 31.1673 19.2037 22.5823 18.6796H22.5965Z" fill="#8F8F8F"/>
</svg>
