<svg width="39" height="39" viewBox="0 0 39 39" fill="none" xmlns="http://www.w3.org/2000/svg">
<path fill-rule="evenodd" clip-rule="evenodd" d="M20.7737 33.513C20.7737 34.3886 21.4787 35.0964 22.3509 35.0964H27.0824C28.7557 35.0964 30.3597 34.4298 31.5426 33.2423C32.7255 32.0548 33.3911 30.4429 33.3911 28.763C33.3911 27.8542 33.3911 27.1797 33.3911 27.1797C33.3911 26.3057 32.6845 25.5964 31.8139 25.5964H22.3509C21.4787 25.5964 20.7737 26.3057 20.7737 27.1797V33.513ZM16.0422 35.0964C16.9128 35.0964 17.6193 34.3886 17.6193 33.513V17.6797C17.6193 16.8057 16.9128 16.0964 16.0422 16.0964H6.57913C5.70695 16.0964 5.00195 16.8057 5.00195 17.6797V28.763C5.00195 30.4429 5.66594 32.0548 6.84882 33.2423C8.0317 34.4298 9.63726 35.0964 11.3106 35.0964H16.0422ZM30.2367 28.763H23.928V31.9297H27.0824C27.9183 31.9297 28.7211 31.5972 29.3125 31.0034C29.9039 30.4097 30.2367 29.6038 30.2367 28.763ZM14.465 31.9297V19.263H8.1563V28.763C8.1563 29.6038 8.4875 30.4097 9.08052 31.0034C9.67196 31.5972 10.4732 31.9297 11.3106 31.9297H14.465ZM22.3509 3.42969C21.4787 3.42969 20.7737 4.13902 20.7737 5.01302V20.8464C20.7737 21.7219 21.4787 22.4297 22.3509 22.4297H31.8139C32.6845 22.4297 33.3911 21.7219 33.3911 20.8464V9.76302C33.3911 8.08469 32.7255 6.47285 31.5426 5.28535C30.3597 4.09785 28.7557 3.42969 27.0824 3.42969H22.3509ZM23.928 6.59635V19.263H30.2367V9.76302C30.2367 8.92385 29.9039 8.11794 29.3125 7.52419C28.7211 6.93044 27.9183 6.59635 27.0824 6.59635H23.928ZM17.6193 5.01302C17.6193 4.13902 16.9128 3.42969 16.0422 3.42969H11.3106C9.63726 3.42969 8.0317 4.09785 6.84882 5.28535C5.66594 6.47285 5.00195 8.08469 5.00195 9.76302V11.3464C5.00195 12.2219 5.70695 12.9297 6.57913 12.9297H16.0422C16.9128 12.9297 17.6193 12.2219 17.6193 11.3464V5.01302ZM14.465 6.59635H11.3106C10.4732 6.59635 9.67196 6.93044 9.08052 7.52419C8.4875 8.11794 8.1563 8.92385 8.1563 9.76302H14.465V6.59635Z" fill="#53AFE6"/>
</svg>
