<svg width="36" height="36" viewBox="0 0 36 36" fill="none" xmlns="http://www.w3.org/2000/svg">
<path d="M6.23781 15.0911C5.65881 15.0911 5.10353 14.8611 4.69411 14.4516C4.28469 14.0422 4.05469 13.4869 4.05469 12.9079C4.05469 12.3289 4.28469 11.7737 4.69411 11.3642C5.10353 10.9548 5.65881 10.7248 6.23781 10.7248C6.81681 10.7248 7.3721 10.9548 7.78151 11.3642C8.19093 11.7737 8.42094 12.3289 8.42094 12.9079C8.42094 13.4869 8.19093 14.0422 7.78151 14.4516C7.3721 14.8611 6.81681 15.0911 6.23781 15.0911ZM5.52687 8.59419C6.30796 8.46672 7.10897 8.55211 7.84562 8.84138C8.14217 8.37637 8.55121 7.99368 9.0349 7.7287C9.51859 7.46372 10.0613 7.32502 10.6128 7.32544H25.9253C26.7956 7.32544 27.6302 7.67114 28.2455 8.2865C28.8609 8.90185 29.2066 9.73645 29.2066 10.6067V25.9192C29.2066 26.7894 28.8609 27.624 28.2455 28.2394C27.6302 28.8547 26.7956 29.2004 25.9253 29.2004H10.6128C9.74257 29.2004 8.90797 28.8547 8.29262 28.2394C7.67726 27.624 7.33156 26.7894 7.33156 25.9192V17.1408C6.61414 17.3258 5.86149 17.3258 5.14406 17.1408V25.9192C5.14406 27.3696 5.72023 28.7606 6.74582 29.7862C7.77141 30.8118 9.16241 31.3879 10.6128 31.3879H25.9253C27.3757 31.3879 28.7667 30.8118 29.7923 29.7862C30.8179 28.7606 31.3941 27.3696 31.3941 25.9192V10.6067C31.3941 9.15629 30.8179 7.76529 29.7923 6.7397C28.7667 5.71411 27.3757 5.13794 25.9253 5.13794H10.6128C9.51627 5.13775 8.445 5.4672 7.53806 6.08353C6.63112 6.69986 5.9304 7.5746 5.52687 8.59419ZM13.8941 13.8879C13.604 13.8879 13.3258 14.0032 13.1207 14.2083C12.9155 14.4134 12.8003 14.6916 12.8003 14.9817C12.8003 15.2718 12.9155 15.55 13.1207 15.7551C13.3258 15.9602 13.604 16.0754 13.8941 16.0754H22.6441C22.9341 16.0754 23.2123 15.9602 23.4175 15.7551C23.6226 15.55 23.7378 15.2718 23.7378 14.9817C23.7378 14.6916 23.6226 14.4134 23.4175 14.2083C23.2123 14.0032 22.9341 13.8879 22.6441 13.8879H13.8941ZM13.8941 20.4504C13.604 20.4504 13.3258 20.5657 13.1207 20.7708C12.9155 20.9759 12.8003 21.2541 12.8003 21.5442C12.8003 21.8343 12.9155 22.1125 13.1207 22.3176C13.3258 22.5227 13.604 22.6379 13.8941 22.6379H19.6122C19.9023 22.6379 20.1805 22.5227 20.3856 22.3176C20.5907 22.1125 20.7059 21.8343 20.7059 21.5442C20.7059 21.2541 20.5907 20.9759 20.3856 20.7708C20.1805 20.5657 19.9023 20.4504 19.6122 20.4504H13.8941Z" fill="#8F8F8F"/>
</svg>
