<svg width="38" height="38" viewBox="0 0 38 38" fill="none" xmlns="http://www.w3.org/2000/svg">
<path d="M19.2695 9.51294C18.1261 9.51294 17.0084 9.852 16.0576 10.4873C15.1069 11.1225 14.3659 12.0254 13.9284 13.0818C13.4908 14.1382 13.3763 15.3006 13.5994 16.4221C13.8224 17.5435 14.3731 18.5736 15.1816 19.3822C15.9901 20.1907 17.0202 20.7413 18.1417 20.9644C19.2631 21.1874 20.4255 21.0729 21.4819 20.6354C22.5383 20.1978 23.4412 19.4568 24.0765 18.5061C24.7117 17.5554 25.0508 16.4376 25.0508 15.2942C25.0508 13.7609 24.4417 12.2904 23.3575 11.2062C22.2733 10.122 20.8028 9.51294 19.2695 9.51294ZM19.2695 18.7629C18.5835 18.7629 17.9128 18.5595 17.3424 18.1783C16.772 17.7972 16.3274 17.2555 16.0648 16.6216C15.8023 15.9878 15.7336 15.2903 15.8674 14.6175C16.0013 13.9446 16.3316 13.3265 16.8168 12.8414C17.3019 12.3563 17.9199 12.0259 18.5928 11.8921C19.2657 11.7582 19.9631 11.8269 20.597 12.0895C21.2308 12.352 21.7725 12.7966 22.1537 13.3671C22.5348 13.9375 22.7383 14.6081 22.7383 15.2942C22.7374 16.2139 22.3716 17.0956 21.7213 17.746C21.071 18.3963 20.1892 18.762 19.2695 18.7629Z" fill="#ACACAC"/>
<path d="M19.2695 2.57544C16.068 2.57544 12.9383 3.52482 10.2762 5.30353C7.61422 7.08223 5.53943 9.61037 4.31424 12.5683C3.08905 15.5261 2.76848 18.7809 3.39308 21.921C4.01768 25.061 5.55938 27.9454 7.82325 30.2092C10.0871 32.4731 12.9714 34.0148 16.1115 34.6394C19.2516 35.264 22.5063 34.9434 25.4642 33.7182C28.4221 32.493 30.9502 30.4183 32.729 27.7562C34.5077 25.0942 35.457 21.9645 35.457 18.7629C35.4521 14.4713 33.7451 10.3567 30.7104 7.32206C27.6757 4.28737 23.5612 2.58034 19.2695 2.57544ZM12.332 30.7613V29.1692C12.333 28.2495 12.6987 27.3677 13.349 26.7174C13.9993 26.0671 14.8811 25.7014 15.8008 25.7004H22.7383C23.658 25.7014 24.5397 26.0671 25.1901 26.7174C25.8404 27.3677 26.2061 28.2495 26.207 29.1692V30.7613C24.1017 31.9907 21.7075 32.6385 19.2695 32.6385C16.8316 32.6385 14.4374 31.9907 12.332 30.7613ZM28.5103 29.0836C28.4872 27.567 27.8693 26.1201 26.7897 25.0548C25.71 23.9894 24.2551 23.3908 22.7383 23.3879H15.8008C14.284 23.3908 12.829 23.9894 11.7494 25.0548C10.6697 26.1201 10.0518 27.567 10.0288 29.0836C7.932 27.2114 6.45335 24.7464 5.78863 22.0151C5.1239 19.2838 5.30447 16.415 6.3064 13.7886C7.30834 11.1622 9.08439 8.90205 11.3994 7.30747C13.7144 5.71288 16.4591 4.85906 19.2701 4.85906C22.0811 4.85906 24.8259 5.71288 27.1409 7.30747C29.4558 8.90205 31.2319 11.1622 32.2338 13.7886C33.2358 16.415 33.4163 19.2838 32.7516 22.0151C32.0869 24.7464 30.6082 27.2114 28.5114 29.0836H28.5103Z" fill="#ACACAC"/>
</svg>
