<svg width="36" height="36" viewBox="0 0 36 36" fill="none" xmlns="http://www.w3.org/2000/svg">
<path d="M25.9695 16.0129H15.8195C14.8535 16.0129 14.7695 16.7952 14.7695 17.7629C14.7695 18.7307 14.8535 19.5129 15.8195 19.5129H25.9695C26.9355 19.5129 27.0195 18.7307 27.0195 17.7629C27.0195 16.7952 26.9355 16.0129 25.9695 16.0129ZM29.4695 24.7629H15.8195C14.8535 24.7629 14.7695 25.5452 14.7695 26.5129C14.7695 27.4807 14.8535 28.2629 15.8195 28.2629H29.4695C30.4355 28.2629 30.5195 27.4807 30.5195 26.5129C30.5195 25.5452 30.4355 24.7629 29.4695 24.7629ZM15.8195 10.7629H29.4695C30.4355 10.7629 30.5195 9.98069 30.5195 9.01294C30.5195 8.04519 30.4355 7.26294 29.4695 7.26294H15.8195C14.8535 7.26294 14.7695 8.04519 14.7695 9.01294C14.7695 9.98069 14.8535 10.7629 15.8195 10.7629ZM10.2195 16.0129H7.06953C6.10353 16.0129 6.01953 16.7952 6.01953 17.7629C6.01953 18.7307 6.10353 19.5129 7.06953 19.5129H10.2195C11.1855 19.5129 11.2695 18.7307 11.2695 17.7629C11.2695 16.7952 11.1855 16.0129 10.2195 16.0129ZM10.2195 24.7629H7.06953C6.10353 24.7629 6.01953 25.5452 6.01953 26.5129C6.01953 27.4807 6.10353 28.2629 7.06953 28.2629H10.2195C11.1855 28.2629 11.2695 27.4807 11.2695 26.5129C11.2695 25.5452 11.1855 24.7629 10.2195 24.7629ZM10.2195 7.26294H7.06953C6.10353 7.26294 6.01953 8.04519 6.01953 9.01294C6.01953 9.98069 6.10353 10.7629 7.06953 10.7629H10.2195C11.1855 10.7629 11.2695 9.98069 11.2695 9.01294C11.2695 8.04519 11.1855 7.26294 10.2195 7.26294Z" fill="#8F8F8F"/>
</svg>
